<?xml version="1.0" standalone="no"?>
<!DOCTYPE svg PUBLIC "-//W3C//DTD SVG 1.1//EN" "http://www.w3.org/Graphics/SVG/1.1/DTD/svg11.dtd">
<svg width="100mm" height="14mm" viewBox="-75 -7 100 14" xmlns="http://www.w3.org/2000/svg" version="1.1">
<title>OpenSCAD Model</title>
<path d="
M 11.511,6.0813 L 11.5438,5.66376 L 11.5985,5.24852 L 11.6748,4.8367 L 11.7726,4.42944 L 11.8915,4.02786
 L 12.0313,3.63304 L 12.1916,3.24609 L 12.3719,2.86807 L 12.5718,2.5 L 12.7906,2.14288 L 13.0279,1.79771
 L 13.2828,1.46542 L 13.5548,1.14694 L 13.8431,0.84314 L 14.1469,0.55484 L 14.4654,0.282822 L 14.7977,0.0278625
 L 15.1429,-0.209351 L 15.5,-0.428192 L 15.8681,-0.628052 L 16.2461,-0.80835 L 16.633,-0.968643 L 17.0279,-1.10844
 L 17.4294,-1.2274 L 17.8367,-1.32518 L 18.2485,-1.4015 L 18.6638,-1.45616 L 19.0813,-1.48903 L 19.225,-1.4928
 L 19.225,-1.5 L 25,-1.5 L 25,-3 L 10,-3 L 10,5 L -73.3286,5
 L -73.3286,-5 L 4.59999,-5 L 4.62093,-5.00053 L 4.6418,-5.00218 L 4.66257,-5.00491 L 4.68315,-5.00873
 L 4.70352,-5.01363 L 4.7236,-5.01958 L 4.74335,-5.02657 L 4.76268,-5.03458 L 4.78159,-5.04359 L 4.79999,-5.05359
 L 4.81784,-5.06453 L 4.83511,-5.07639 L 4.85172,-5.08913 L 4.86765,-5.10274 L 4.88283,-5.11716 L 4.89725,-5.13234
 L 4.91086,-5.14827 L 4.9236,-5.16487 L 4.93546,-5.18214 L 4.9464,-5.2 L 4.95639,-5.2184 L 4.96541,-5.2373
 L 4.97342,-5.25664 L 4.98041,-5.27638 L 4.98636,-5.29646 L 4.99126,-5.31683 L 4.99507,-5.33742 L 4.9978,-5.35818
 L 4.99945,-5.37906 L 5,-5.39999 L 4.99945,-5.42093 L 4.9978,-5.4418 L 4.99507,-5.46257 L 4.99126,-5.48315
 L 4.98636,-5.50352 L 4.98041,-5.52361 L 4.97342,-5.54333 L 4.96541,-5.56268 L 4.95639,-5.58159 L 4.9464,-5.59999
 L 4.93546,-5.61784 L 4.9236,-5.6351 L 4.91086,-5.65172 L 4.89725,-5.66765 L 4.88283,-5.68283 L 4.86765,-5.69725
 L 4.85172,-5.71085 L 4.83511,-5.7236 L 4.81784,-5.73546 L 4.79999,-5.7464 L 4.78159,-5.75639 L 4.76268,-5.76541
 L 4.74335,-5.77342 L 4.7236,-5.78041 L 4.70352,-5.78636 L 4.68315,-5.79124 L 4.66257,-5.79507 L 0.0499878,-6.5
 L -74.8286,-6.5 L -74.8286,6.5 L 11.5,6.5 z
M 25,-6.5 L 10,-6.5 L 10,-5 L 25,-5 z
" stroke="black" fill="lightgray" stroke-width="0.5"/>
</svg>
